<svg width="244" height="23" viewBox="0 0 244 23" fill="none" xmlns="http://www.w3.org/2000/svg">
<path d="M14.352 23V6.232H8.592V23H0.56V0.823999H22.416V23H14.352ZM26.8568 23V0.823999H44.9688V6.2H34.9528V9.016H43.3368V14.136H34.9528V17.56H45.3528V23H26.8568ZM67.5538 8.152C67.5538 9.15467 67.3724 10.104 67.0098 11C66.6684 11.8747 66.1458 12.6427 65.4418 13.304C64.7378 13.9653 63.8738 14.488 62.8498 14.872C61.8258 15.256 60.6418 15.448 59.2978 15.448H56.5458V23H48.4818V0.823999H58.7858C60.4498 0.823999 61.8471 1.016 62.9778 1.4C64.1084 1.784 65.0044 2.30667 65.6658 2.968C66.3484 3.62933 66.8284 4.408 67.1058 5.304C67.4044 6.2 67.5538 7.14933 67.5538 8.152ZM56.5458 6.2V10.264H57.5378C58.1351 10.264 58.5938 10.0933 58.9138 9.752C59.2551 9.41067 59.4258 8.93067 59.4258 8.312C59.4258 7.50133 59.2338 6.94667 58.8498 6.648C58.4658 6.34933 57.9644 6.2 57.3458 6.2H56.5458ZM89.9878 11.064C89.8811 11.3627 89.7638 11.704 89.6358 12.088C89.5291 12.4507 89.4224 12.824 89.3158 13.208C89.2091 13.592 89.0918 13.976 88.9638 14.36C88.8571 14.7227 88.7611 15.0427 88.6758 15.32L86.7558 20.504H80.7078L78.9158 15.512L77.7318 11.448H77.5718V23H69.8278V0.823999H80.1318L82.3718 7.544L83.6838 12.792H84.0037C84.1318 12.4507 84.2491 12.056 84.3558 11.608C84.4838 11.16 84.6011 10.7013 84.7078 10.232C84.8358 9.76267 84.9531 9.31467 85.0598 8.888C85.1878 8.44 85.3158 8.04533 85.4438 7.704L87.9398 0.823999H98.0198V23H90.1478V11.064H89.9878ZM123.104 23H115.104V15.416C114.485 15.48 113.792 15.544 113.024 15.608C112.277 15.6507 111.552 15.672 110.848 15.672C109.696 15.672 108.544 15.576 107.392 15.384C106.261 15.192 105.237 14.8507 104.32 14.36C103.424 13.848 102.688 13.1547 102.112 12.28C101.557 11.4053 101.28 10.2853 101.28 8.92L101.312 0.823999H109.344V7.512C109.344 7.98133 109.419 8.376 109.568 8.696C109.717 8.99467 109.92 9.24 110.176 9.432C110.453 9.60267 110.773 9.73067 111.136 9.816C111.499 9.88 111.883 9.912 112.288 9.912C112.715 9.912 113.173 9.89067 113.664 9.848C114.155 9.784 114.635 9.69867 115.104 9.592V0.823999H123.104V23ZM126.919 23V0.823999H145.031V6.2H135.015V9.016H143.399V14.136H135.015V17.56H145.415V23H126.919ZM167.616 8.152C167.616 9.15467 167.435 10.104 167.072 11C166.731 11.8747 166.208 12.6427 165.504 13.304C164.8 13.9653 163.936 14.488 162.912 14.872C161.888 15.256 160.704 15.448 159.36 15.448H156.608V23H148.544V0.823999H158.848C160.512 0.823999 161.91 1.016 163.04 1.4C164.171 1.784 165.067 2.30667 165.728 2.968C166.411 3.62933 166.891 4.408 167.168 5.304C167.467 6.2 167.616 7.14933 167.616 8.152ZM156.608 6.2V10.264H157.6C158.198 10.264 158.656 10.0933 158.976 9.752C159.318 9.41067 159.488 8.93067 159.488 8.312C159.488 7.50133 159.296 6.94667 158.912 6.648C158.528 6.34933 158.027 6.2 157.408 6.2H156.608ZM190.05 11.064C189.944 11.3627 189.826 11.704 189.698 12.088C189.592 12.4507 189.485 12.824 189.378 13.208C189.272 13.592 189.154 13.976 189.026 14.36C188.92 14.7227 188.824 15.0427 188.738 15.32L186.818 20.504H180.77L178.978 15.512L177.794 11.448H177.634V23H169.89V0.823999H180.194L182.434 7.544L183.746 12.792H184.066C184.194 12.4507 184.312 12.056 184.418 11.608C184.546 11.16 184.664 10.7013 184.77 10.232C184.898 9.76267 185.016 9.31467 185.122 8.888C185.25 8.44 185.378 8.04533 185.506 7.704L188.002 0.823999H198.082V23H190.21V11.064H190.05ZM201.951 23V0.823999H220.062V6.2H210.047V9.016H218.431V14.136H210.047V17.56H220.447V23H201.951ZM228.696 23V6.36H221.848V0.823999H243.576V6.36H236.696V23H228.696Z" fill="url(#paint0_linear)"/>
<defs>
<linearGradient id="paint0_linear" x1="121" y1="-4" x2="121" y2="34" gradientUnits="userSpaceOnUse">
<stop stop-color="#FE9F01"/>
<stop offset="1" stop-color="#FC6B0F"/>
</linearGradient>
</defs>
</svg>
