<svg width="244" height="40" viewBox="94 38 244 30" fill="none" xmlns="http://www.w3.org/2000/svg">
<path d="M108.352 64V47.232H102.592V64H94.56V41.824H116.416V64H108.352ZM120.857 64V41.824H138.969V47.2H128.953V50.016H137.337V55.136H128.953V58.56H139.353V64H120.857ZM161.554 49.152C161.554 50.1547 161.372 51.104 161.01 52C160.668 52.8747 160.146 53.6427 159.442 54.304C158.738 54.9653 157.874 55.488 156.85 55.872C155.826 56.256 154.642 56.448 153.298 56.448H150.546V64H142.482V41.824H152.786C154.45 41.824 155.847 42.016 156.978 42.4C158.108 42.784 159.004 43.3067 159.666 43.968C160.348 44.6293 160.828 45.408 161.106 46.304C161.404 47.2 161.554 48.1493 161.554 49.152ZM150.546 47.2V51.264H151.538C152.135 51.264 152.594 51.0933 152.914 50.752C153.255 50.4107 153.426 49.9307 153.426 49.312C153.426 48.5013 153.234 47.9467 152.85 47.648C152.466 47.3493 151.964 47.2 151.346 47.2H150.546ZM183.988 52.064C183.881 52.3627 183.764 52.704 183.636 53.088C183.529 53.4507 183.422 53.824 183.316 54.208C183.209 54.592 183.092 54.976 182.964 55.36C182.857 55.7227 182.761 56.0427 182.676 56.32L180.756 61.504H174.708L172.916 56.512L171.732 52.448H171.572V64H163.828V41.824H174.132L176.372 48.544L177.684 53.792H178.004C178.132 53.4507 178.249 53.056 178.356 52.608C178.484 52.16 178.601 51.7013 178.708 51.232C178.836 50.7627 178.953 50.3147 179.06 49.888C179.188 49.44 179.316 49.0453 179.444 48.704L181.94 41.824H192.02V64H184.148V52.064H183.988ZM217.104 64H209.104V56.416C208.485 56.48 207.792 56.544 207.024 56.608C206.277 56.6507 205.552 56.672 204.848 56.672C203.696 56.672 202.544 56.576 201.392 56.384C200.261 56.192 199.237 55.8507 198.32 55.36C197.424 54.848 196.688 54.1547 196.112 53.28C195.557 52.4053 195.28 51.2853 195.28 49.92L195.312 41.824H203.344V48.512C203.344 48.9813 203.419 49.376 203.568 49.696C203.717 49.9947 203.92 50.24 204.176 50.432C204.453 50.6027 204.773 50.7307 205.136 50.816C205.499 50.88 205.883 50.912 206.288 50.912C206.715 50.912 207.173 50.8907 207.664 50.848C208.155 50.784 208.635 50.6987 209.104 50.592V41.824H217.104V64ZM220.919 64V41.824H239.031V47.2H229.015V50.016H237.399V55.136H229.015V58.56H239.415V64H220.919ZM261.616 49.152C261.616 50.1547 261.435 51.104 261.072 52C260.731 52.8747 260.208 53.6427 259.504 54.304C258.8 54.9653 257.936 55.488 256.912 55.872C255.888 56.256 254.704 56.448 253.36 56.448H250.608V64H242.544V41.824H252.848C254.512 41.824 255.91 42.016 257.04 42.4C258.171 42.784 259.067 43.3067 259.728 43.968C260.411 44.6293 260.891 45.408 261.168 46.304C261.467 47.2 261.616 48.1493 261.616 49.152ZM250.608 47.2V51.264H251.6C252.198 51.264 252.656 51.0933 252.976 50.752C253.318 50.4107 253.488 49.9307 253.488 49.312C253.488 48.5013 253.296 47.9467 252.912 47.648C252.528 47.3493 252.027 47.2 251.408 47.2H250.608ZM284.05 52.064C283.944 52.3627 283.826 52.704 283.698 53.088C283.592 53.4507 283.485 53.824 283.378 54.208C283.272 54.592 283.154 54.976 283.026 55.36C282.92 55.7227 282.824 56.0427 282.738 56.32L280.818 61.504H274.77L272.978 56.512L271.794 52.448H271.634V64H263.89V41.824H274.194L276.434 48.544L277.746 53.792H278.066C278.194 53.4507 278.312 53.056 278.418 52.608C278.546 52.16 278.664 51.7013 278.77 51.232C278.898 50.7627 279.016 50.3147 279.122 49.888C279.25 49.44 279.378 49.0453 279.506 48.704L282.002 41.824H292.082V64H284.21V52.064H284.05ZM295.951 64V41.824H314.062V47.2H304.047V50.016H312.431V55.136H304.047V58.56H314.447V64H295.951ZM322.696 64V47.36H315.848V41.824H337.576V47.36H330.696V64H322.696Z" fill="url(#paint0_linear)"/>
<defs>
<linearGradient id="paint0_linear" x1="215" y1="37" x2="215" y2="75" gradientUnits="userSpaceOnUse">
<stop stop-color="#FE9F01"/>
<stop offset="1" stop-color="#FC6B0F"/>
</linearGradient>
</defs>
</svg>
